<svg xmlns="http://www.w3.org/2000/svg" viewBox="0 0 800 500" font-family="-apple-system, 'Helvetica Neue', sans-serif">
  <rect width="800" height="500" fill="#0f172a" rx="12"/>

  <!-- Header -->
  <text x="400" y="42" text-anchor="middle" font-size="22" fill="#e2e8f0" font-weight="bold">french-language</text>
  <text x="400" y="62" text-anchor="middle" font-size="12" fill="#64748b">Accents et typographie françaises sur tous les formats de fichiers</text>

  <!-- Left panel: before -->
  <g transform="translate(65, 82)">
    <rect width="270" height="200" rx="12" fill="#1e293b" stroke="#ef4444" stroke-width="2"/>
    <text x="135" y="28" text-anchor="middle" font-size="13" fill="#f87171" font-weight="bold">Avant</text>

    <g transform="translate(20, 44)">
      <rect width="230" height="30" rx="6" fill="#1a1a2e" stroke="#ef4444" stroke-width="1" opacity="0.5"/>
      <text x="12" y="21" font-size="14" fill="#94a3b8" font-family="'SF Mono','Fira Code',monospace">qualite</text>
    </g>

    <g transform="translate(20, 84)">
      <rect width="230" height="30" rx="6" fill="#1a1a2e" stroke="#ef4444" stroke-width="1" opacity="0.5"/>
      <text x="12" y="21" font-size="14" fill="#94a3b8" font-family="'SF Mono','Fira Code',monospace">deploiement</text>
    </g>

    <g transform="translate(20, 124)">
      <rect width="230" height="30" rx="6" fill="#1a1a2e" stroke="#ef4444" stroke-width="1" opacity="0.5"/>
      <text x="12" y="21" font-size="14" fill="#94a3b8" font-family="'SF Mono','Fira Code',monospace">résultat — succès</text>
    </g>

    <g transform="translate(226, 172)">
      <circle r="14" fill="#ef4444" opacity="0.2"/>
      <path d="M-6,-6 L6,6 M6,-6 L-6,6" stroke="#ef4444" stroke-width="2.5" stroke-linecap="round"/>
    </g>
  </g>

  <!-- Arrow -->
  <g transform="translate(355, 182)">
    <line x1="0" y1="0" x2="65" y2="0" stroke="#475569" stroke-width="2"/>
    <polygon points="65,-5 80,0 65,5" fill="#475569"/>
    <text x="37" y="-10" text-anchor="middle" font-size="10" fill="#64748b">corrige</text>
  </g>

  <!-- Right panel: after -->
  <g transform="translate(465, 82)">
    <rect width="270" height="200" rx="12" fill="#1e293b" stroke="#22c55e" stroke-width="2"/>
    <text x="135" y="28" text-anchor="middle" font-size="13" fill="#86efac" font-weight="bold">Après</text>

    <g transform="translate(20, 44)">
      <rect width="230" height="30" rx="6" fill="#1a1a2e" stroke="#22c55e" stroke-width="1" opacity="0.5"/>
      <text x="12" y="21" font-size="14" fill="#e2e8f0" font-family="'SF Mono','Fira Code',monospace">qualité</text>
    </g>

    <g transform="translate(20, 84)">
      <rect width="230" height="30" rx="6" fill="#1a1a2e" stroke="#22c55e" stroke-width="1" opacity="0.5"/>
      <text x="12" y="21" font-size="14" fill="#e2e8f0" font-family="'SF Mono','Fira Code',monospace">déploiement</text>
    </g>

    <g transform="translate(20, 124)">
      <rect width="230" height="30" rx="6" fill="#1a1a2e" stroke="#22c55e" stroke-width="1" opacity="0.5"/>
      <text x="12" y="21" font-size="14" fill="#e2e8f0" font-family="'SF Mono','Fira Code',monospace">résultat : succès</text>
    </g>

    <g transform="translate(226, 172)">
      <circle r="14" fill="#22c55e" opacity="0.2"/>
      <path d="M-7,0 L-2,5 L7,-6" stroke="#22c55e" stroke-width="2.5" fill="none" stroke-linecap="round" stroke-linejoin="round"/>
    </g>
  </g>

  <!-- Format badges: 6 x w=90, gap=13, total=605, start=97 -->
  <g transform="translate(97, 314)">
    <rect width="90" height="34" rx="8" fill="#1e3a5f" stroke="#3b82f6" stroke-width="1.5"/>
    <text x="45" y="22" text-anchor="middle" font-size="12" fill="#93c5fd" font-weight="bold">.md</text>

    <g transform="translate(103, 0)">
      <rect width="90" height="34" rx="8" fill="#3a2a1a" stroke="#f59e0b" stroke-width="1.5"/>
      <text x="45" y="22" text-anchor="middle" font-size="12" fill="#fcd34d" font-weight="bold">.svg</text>
    </g>

    <g transform="translate(206, 0)">
      <rect width="90" height="34" rx="8" fill="#1a3a2a" stroke="#22c55e" stroke-width="1.5"/>
      <text x="45" y="22" text-anchor="middle" font-size="12" fill="#86efac" font-weight="bold">.mmd</text>
    </g>

    <g transform="translate(309, 0)">
      <rect width="90" height="34" rx="8" fill="#2a1a3a" stroke="#a855f7" stroke-width="1.5"/>
      <text x="45" y="22" text-anchor="middle" font-size="12" fill="#c084fc" font-weight="bold">.csv</text>
    </g>

    <g transform="translate(412, 0)">
      <rect width="90" height="34" rx="8" fill="#2a1a2a" stroke="#ec4899" stroke-width="1.5"/>
      <text x="45" y="22" text-anchor="middle" font-size="12" fill="#f9a8d4" font-weight="bold">.json</text>
    </g>

    <g transform="translate(515, 0)">
      <rect width="90" height="34" rx="8" fill="#2a1a1a" stroke="#ef4444" stroke-width="1.5"/>
      <text x="45" y="22" text-anchor="middle" font-size="12" fill="#fca5a5" font-weight="bold">.html</text>
    </g>
  </g>

  <!-- Process steps: 4 x w=120, arrows 40px, total=600, start=100 -->
  <g transform="translate(100, 378)">
    <rect width="120" height="40" rx="8" fill="#1e293b" stroke="#475569" stroke-width="1.5"/>
    <text x="60" y="25" text-anchor="middle" font-size="12" fill="#94a3b8">Scanner</text>

    <line x1="124" y1="20" x2="156" y2="20" stroke="#475569" stroke-width="1.5"/>
    <polygon points="156,15 168,20 156,25" fill="#475569"/>

    <g transform="translate(170, 0)">
      <rect width="120" height="40" rx="8" fill="#1e293b" stroke="#475569" stroke-width="1.5"/>
      <text x="60" y="25" text-anchor="middle" font-size="12" fill="#94a3b8">Analyser</text>
    </g>

    <line x1="294" y1="20" x2="326" y2="20" stroke="#475569" stroke-width="1.5"/>
    <polygon points="326,15 338,20 326,25" fill="#475569"/>

    <g transform="translate(340, 0)">
      <rect width="120" height="40" rx="8" fill="#1e293b" stroke="#475569" stroke-width="1.5"/>
      <text x="60" y="25" text-anchor="middle" font-size="12" fill="#94a3b8">Corriger</text>
    </g>

    <line x1="464" y1="20" x2="496" y2="20" stroke="#475569" stroke-width="1.5"/>
    <polygon points="496,15 508,20 496,25" fill="#475569"/>

    <g transform="translate(510, 0)">
      <rect width="120" height="40" rx="8" fill="#1e293b" stroke="#475569" stroke-width="1.5"/>
      <text x="60" y="25" text-anchor="middle" font-size="12" fill="#94a3b8">Valider</text>
    </g>
  </g>

  <!-- Bottom title -->
  <text x="400" y="475" text-anchor="middle" font-size="14" fill="#e2e8f0" font-weight="bold">Accents et typographie françaises · tous formats de fichiers</text>

  <!-- AI Skill badge -->
  <g transform="translate(755, 40)">
    <path d="M0,-16 L3.5,-5.5 L16,0 L3.5,5.5 L0,16 L-3.5,5.5 L-16,0 L-3.5,-5.5 Z" fill="#fbbf24" opacity="0.8"/>
    <circle r="6" fill="#fef3c7" stroke="#f59e0b" stroke-width="1.5"/>
    <text y="28" text-anchor="middle" font-size="8" fill="#f59e0b" font-weight="bold">AI Skill</text>
  </g>
</svg>
