<svg xmlns="http://www.w3.org/2000/svg" viewBox="0 0 800 500" font-family="'SF Mono', 'Fira Code', monospace">
  <rect width="800" height="500" fill="#1e1e1e" rx="12"/>

  <!-- Editor title bar -->
  <rect width="800" height="36" rx="12" fill="#2d2d2d"/>
  <rect y="24" width="800" height="12" fill="#2d2d2d"/>
  <circle cx="20" cy="18" r="6" fill="#ff5f57"/>
  <circle cx="40" cy="18" r="6" fill="#febc2e"/>
  <circle cx="60" cy="18" r="6" fill="#28c840"/>
  <text x="400" y="23" text-anchor="middle" font-size="12" fill="#8b949e">awesome-actions.md</text>

  <!-- Before section -->
  <g transform="translate(40, 70)">
    <text x="0" y="0" font-size="14" fill="#f85149" font-weight="bold">✗ Before</text>

    <!-- Code block -->
    <rect x="0" y="15" width="720" height="120" rx="8" fill="#161b22"/>

    <!-- Line numbers -->
    <text x="15" y="45" font-size="13" fill="#484f58">12</text>
    <text x="15" y="70" font-size="13" fill="#484f58">13</text>
    <text x="15" y="95" font-size="13" fill="#484f58">14</text>

    <!-- Line 12 -->
    <text x="45" y="45" font-size="13">
      <tspan fill="#8b949e">- [</tspan><tspan fill="#c9d1d9">a guide to writing github actions</tspan><tspan fill="#8b949e">](https://github.com/...)</tspan>
    </text>
    <path d="M68,50 q3,-4 6,0 t6,0 t6,0 t6,0 t6,0 t6,0 t6,0 t6,0 t6,0 t6,0 t6,0 t6,0 t6,0 t6,0 t6,0 t6,0 t6,0 t6,0 t6,0 t6,0 t6,0 t6,0 t6,0 t6,0 t6,0 t6,0" stroke="#f85149" stroke-width="1.5" fill="none"/>

    <!-- Line 13 -->
    <text x="45" y="70" font-size="13">
      <tspan fill="#8b949e">- [</tspan><tspan fill="#c9d1d9">deploy To kubernetes with helm</tspan><tspan fill="#8b949e">](https://github.com/...)</tspan>
    </text>
    <path d="M68,75 q3,-4 6,0 t6,0 t6,0 t6,0 t6,0 t6,0 t6,0 t6,0 t6,0 t6,0 t6,0 t6,0 t6,0 t6,0 t6,0 t6,0 t6,0 t6,0 t6,0 t6,0 t6,0 t6,0 t6,0" stroke="#f85149" stroke-width="1.5" fill="none"/>

    <!-- Line 14 -->
    <text x="45" y="95" font-size="13">
      <tspan fill="#8b949e">- [</tspan><tspan fill="#c9d1d9">setup Node.js Environment</tspan><tspan fill="#8b949e">](https://github.com/...)</tspan>
    </text>
    <path d="M68,100 q3,-4 6,0 t6,0 t6,0 t6,0 t6,0 t6,0 t6,0 t6,0 t6,0 t6,0 t6,0 t6,0 t6,0 t6,0 t6,0 t6,0 t6,0 t6,0 t6,0" stroke="#f85149" stroke-width="1.5" fill="none"/>
  </g>

  <!-- Arrow -->
  <g transform="translate(380, 235)">
    <line x1="0" y1="0" x2="0" y2="30" stroke="#58a6ff" stroke-width="3"/>
    <polygon points="-8,30 0,44 8,30" fill="#58a6ff"/>
    <text x="25" y="25" font-size="12" fill="#58a6ff" font-family="sans-serif">textlint --fix</text>
  </g>

  <!-- After section -->
  <g transform="translate(40, 290)">
    <text x="0" y="0" font-size="14" fill="#3fb950" font-weight="bold">✓ After</text>

    <rect x="0" y="15" width="720" height="120" rx="8" fill="#161b22"/>

    <text x="15" y="45" font-size="13" fill="#484f58">12</text>
    <text x="15" y="70" font-size="13" fill="#484f58">13</text>
    <text x="15" y="95" font-size="13" fill="#484f58">14</text>

    <text x="45" y="45" font-size="13">
      <tspan fill="#8b949e">- [</tspan><tspan fill="#3fb950">A Guide to Writing GitHub Actions</tspan><tspan fill="#8b949e">](https://github.com/...)</tspan>
    </text>

    <text x="45" y="70" font-size="13">
      <tspan fill="#8b949e">- [</tspan><tspan fill="#3fb950">Deploy to Kubernetes with Helm</tspan><tspan fill="#8b949e">](https://github.com/...)</tspan>
    </text>

    <text x="45" y="95" font-size="13">
      <tspan fill="#8b949e">- [</tspan><tspan fill="#3fb950">Setup Node.js Environment</tspan><tspan fill="#8b949e">](https://github.com/...)</tspan>
    </text>
  </g>

  <!-- Bottom label -->
  <text x="400" y="470" text-anchor="middle" font-size="14" fill="#8b949e" font-family="sans-serif">textlint-rule-link-title-case — AP Style Title Case for Markdown Links</text>
</svg>
