<svg xmlns="http://www.w3.org/2000/svg" viewBox="0 0 800 500" font-family="-apple-system, 'Helvetica Neue', sans-serif">
  <rect width="800" height="500" fill="#0f172a" rx="12"/>

  <!-- README document (left side) -->
  <g transform="translate(100, 80)">
    <rect width="220" height="280" rx="8" fill="#1e293b" stroke="#475569" stroke-width="1.5"/>
    <!-- Title bar -->
    <rect width="220" height="36" rx="8" fill="#334155"/>
    <rect y="28" width="220" height="8" fill="#334155"/>
    <text x="110" y="24" text-anchor="middle" font-size="13" fill="#e2e8f0" font-weight="bold">README.md</text>

    <!-- Feature lines with status indicators -->
    <g transform="translate(16, 52)">
      <!-- Confirmed feature -->
      <circle cx="8" cy="8" r="6" fill="#22c55e" opacity="0.9"/>
      <path d="M5,8 L7,10 L11,5" stroke="#fff" stroke-width="1.5" fill="none" stroke-linecap="round" stroke-linejoin="round"/>
      <rect x="22" y="3" width="130" height="10" rx="3" fill="#334155"/>
      <text x="24" y="12" font-size="9" fill="#94a3b8">Config-driven layers</text>

      <!-- Confirmed feature -->
      <g transform="translate(0, 28)">
        <circle cx="8" cy="8" r="6" fill="#22c55e" opacity="0.9"/>
        <path d="M5,8 L7,10 L11,5" stroke="#fff" stroke-width="1.5" fill="none" stroke-linecap="round" stroke-linejoin="round"/>
        <rect x="22" y="3" width="150" height="10" rx="3" fill="#334155"/>
        <text x="24" y="12" font-size="9" fill="#94a3b8">Polygon click-through</text>
      </g>

      <!-- Partial feature -->
      <g transform="translate(0, 56)">
        <circle cx="8" cy="8" r="6" fill="#f59e0b" opacity="0.9"/>
        <rect x="4" y="6" width="8" height="4" rx="1" fill="#fff"/>
        <rect x="22" y="3" width="120" height="10" rx="3" fill="#334155"/>
        <text x="24" y="12" font-size="9" fill="#94a3b8">Tile thumbnails</text>
      </g>

      <!-- Overstated feature -->
      <g transform="translate(0, 84)">
        <circle cx="8" cy="8" r="6" fill="#f97316" opacity="0.9"/>
        <text x="8" y="11.5" text-anchor="middle" font-size="9" fill="#fff" font-weight="bold">!</text>
        <rect x="22" y="3" width="140" height="10" rx="3" fill="#334155"/>
        <text x="24" y="12" font-size="9" fill="#94a3b8">Plugin system</text>
      </g>

      <!-- Not found feature -->
      <g transform="translate(0, 112)">
        <circle cx="8" cy="8" r="6" fill="#ef4444" opacity="0.9"/>
        <path d="M5,5 L11,11 M11,5 L5,11" stroke="#fff" stroke-width="1.5" stroke-linecap="round"/>
        <rect x="22" y="3" width="110" height="10" rx="3" fill="#334155"/>
        <text x="24" y="12" font-size="9" fill="#94a3b8">Dark mode</text>
      </g>

      <!-- Confirmed feature -->
      <g transform="translate(0, 140)">
        <circle cx="8" cy="8" r="6" fill="#22c55e" opacity="0.9"/>
        <path d="M5,8 L7,10 L11,5" stroke="#fff" stroke-width="1.5" fill="none" stroke-linecap="round" stroke-linejoin="round"/>
        <rect x="22" y="3" width="160" height="10" rx="3" fill="#334155"/>
        <text x="24" y="12" font-size="9" fill="#94a3b8">Searchable filter bar</text>
      </g>

      <!-- Confirmed feature -->
      <g transform="translate(0, 168)">
        <circle cx="8" cy="8" r="6" fill="#22c55e" opacity="0.9"/>
        <path d="M5,8 L7,10 L11,5" stroke="#fff" stroke-width="1.5" fill="none" stroke-linecap="round" stroke-linejoin="round"/>
        <rect x="22" y="3" width="100" height="10" rx="3" fill="#334155"/>
        <text x="24" y="12" font-size="9" fill="#94a3b8">XSS prevention</text>
      </g>
    </g>
  </g>

  <!-- Arrow from README to codebase -->
  <g transform="translate(335, 210)">
    <line x1="0" y1="0" x2="80" y2="0" stroke="#475569" stroke-width="2" stroke-dasharray="6,4"/>
    <polygon points="80,-5 90,0 80,5" fill="#475569"/>
    <text x="45" y="-10" text-anchor="middle" font-size="10" fill="#64748b">verify</text>
  </g>

  <!-- Codebase (right side) -->
  <g transform="translate(440, 80)">
    <rect width="260" height="280" rx="8" fill="#1e293b" stroke="#475569" stroke-width="1.5"/>
    <!-- Title bar -->
    <rect width="260" height="36" rx="8" fill="#334155"/>
    <rect y="28" width="260" height="8" fill="#334155"/>
    <text x="130" y="24" text-anchor="middle" font-size="13" fill="#e2e8f0" font-weight="bold">Codebase</text>

    <!-- Source code representation -->
    <g transform="translate(16, 52)">
      <!-- File icon + code lines -->
      <g>
        <rect x="0" y="0" width="16" height="18" rx="2" fill="none" stroke="#3b82f6" stroke-width="1.2"/>
        <line x1="4" y1="5" x2="12" y2="5" stroke="#3b82f6" stroke-width="1"/>
        <line x1="4" y1="9" x2="10" y2="9" stroke="#3b82f6" stroke-width="1"/>
        <line x1="4" y1="13" x2="12" y2="13" stroke="#3b82f6" stroke-width="1"/>
        <text x="22" y="13" font-size="10" fill="#94a3b8">src/layers.js</text>
        <rect x="120" y="2" width="50" height="14" rx="3" fill="#22c55e" opacity="0.15"/>
        <text x="145" y="13" text-anchor="middle" font-size="9" fill="#22c55e">found</text>
      </g>

      <g transform="translate(0, 30)">
        <rect x="0" y="0" width="16" height="18" rx="2" fill="none" stroke="#3b82f6" stroke-width="1.2"/>
        <line x1="4" y1="5" x2="12" y2="5" stroke="#3b82f6" stroke-width="1"/>
        <line x1="4" y1="9" x2="10" y2="9" stroke="#3b82f6" stroke-width="1"/>
        <line x1="4" y1="13" x2="12" y2="13" stroke="#3b82f6" stroke-width="1"/>
        <text x="22" y="13" font-size="10" fill="#94a3b8">src/polygon.js</text>
        <rect x="120" y="2" width="50" height="14" rx="3" fill="#22c55e" opacity="0.15"/>
        <text x="145" y="13" text-anchor="middle" font-size="9" fill="#22c55e">found</text>
      </g>

      <g transform="translate(0, 60)">
        <rect x="0" y="0" width="16" height="18" rx="2" fill="none" stroke="#3b82f6" stroke-width="1.2"/>
        <line x1="4" y1="5" x2="12" y2="5" stroke="#3b82f6" stroke-width="1"/>
        <line x1="4" y1="9" x2="10" y2="9" stroke="#3b82f6" stroke-width="1"/>
        <line x1="4" y1="13" x2="12" y2="13" stroke="#3b82f6" stroke-width="1"/>
        <text x="22" y="13" font-size="10" fill="#94a3b8">src/tiles.js</text>
        <rect x="120" y="2" width="50" height="14" rx="3" fill="#f59e0b" opacity="0.15"/>
        <text x="145" y="13" text-anchor="middle" font-size="9" fill="#f59e0b">partial</text>
      </g>

      <g transform="translate(0, 90)">
        <rect x="0" y="0" width="16" height="18" rx="2" fill="none" stroke="#3b82f6" stroke-width="1.2"/>
        <line x1="4" y1="5" x2="12" y2="5" stroke="#3b82f6" stroke-width="1"/>
        <line x1="4" y1="9" x2="10" y2="9" stroke="#3b82f6" stroke-width="1"/>
        <line x1="4" y1="13" x2="12" y2="13" stroke="#3b82f6" stroke-width="1"/>
        <text x="22" y="13" font-size="10" fill="#94a3b8">src/plugin.js</text>
        <rect x="120" y="2" width="70" height="14" rx="3" fill="#f97316" opacity="0.15"/>
        <text x="155" y="13" text-anchor="middle" font-size="9" fill="#f97316">overstated</text>
      </g>

      <g transform="translate(0, 120)">
        <text x="22" y="13" font-size="10" fill="#475569" font-style="italic">no match found</text>
        <rect x="120" y="2" width="65" height="14" rx="3" fill="#ef4444" opacity="0.15"/>
        <text x="152" y="13" text-anchor="middle" font-size="9" fill="#ef4444">not found</text>
      </g>

      <g transform="translate(0, 150)">
        <rect x="0" y="0" width="16" height="18" rx="2" fill="none" stroke="#3b82f6" stroke-width="1.2"/>
        <line x1="4" y1="5" x2="12" y2="5" stroke="#3b82f6" stroke-width="1"/>
        <line x1="4" y1="9" x2="10" y2="9" stroke="#3b82f6" stroke-width="1"/>
        <line x1="4" y1="13" x2="12" y2="13" stroke="#3b82f6" stroke-width="1"/>
        <text x="22" y="13" font-size="10" fill="#94a3b8">src/filter.js</text>
        <rect x="120" y="2" width="50" height="14" rx="3" fill="#22c55e" opacity="0.15"/>
        <text x="145" y="13" text-anchor="middle" font-size="9" fill="#22c55e">found</text>
      </g>

      <g transform="translate(0, 180)">
        <rect x="0" y="0" width="16" height="18" rx="2" fill="none" stroke="#3b82f6" stroke-width="1.2"/>
        <line x1="4" y1="5" x2="12" y2="5" stroke="#3b82f6" stroke-width="1"/>
        <line x1="4" y1="9" x2="10" y2="9" stroke="#3b82f6" stroke-width="1"/>
        <line x1="4" y1="13" x2="12" y2="13" stroke="#3b82f6" stroke-width="1"/>
        <text x="22" y="13" font-size="10" fill="#94a3b8">src/sanitize.js</text>
        <rect x="120" y="2" width="50" height="14" rx="3" fill="#22c55e" opacity="0.15"/>
        <text x="145" y="13" text-anchor="middle" font-size="9" fill="#22c55e">found</text>
      </g>
    </g>
  </g>

  <!-- Legend -->
  <g transform="translate(185, 410)">
    <circle cx="8" cy="8" r="6" fill="#22c55e" opacity="0.9"/>
    <text x="20" y="12" font-size="10" fill="#94a3b8">Confirmed</text>

    <g transform="translate(100, 0)">
      <circle cx="8" cy="8" r="6" fill="#f59e0b" opacity="0.9"/>
      <text x="20" y="12" font-size="10" fill="#94a3b8">Partial</text>
    </g>

    <g transform="translate(180, 0)">
      <circle cx="8" cy="8" r="6" fill="#f97316" opacity="0.9"/>
      <text x="20" y="12" font-size="10" fill="#94a3b8">Overstated</text>
    </g>

    <g transform="translate(290, 0)">
      <circle cx="8" cy="8" r="6" fill="#ef4444" opacity="0.9"/>
      <text x="20" y="12" font-size="10" fill="#94a3b8">Not found</text>
    </g>
  </g>

  <!-- Title -->
  <text x="380" y="465" text-anchor="middle" font-size="16" fill="#e2e8f0" font-weight="bold">Verify README Features</text>
  <text x="380" y="485" text-anchor="middle" font-size="12" fill="#64748b">Claims vs. implementation evidence</text>

  <!-- AI Skill badge -->
  <g transform="translate(755, 40)">
    <path d="M0,-16 L3.5,-5.5 L16,0 L3.5,5.5 L0,16 L-3.5,5.5 L-16,0 L-3.5,-5.5 Z" fill="#fbbf24" opacity="0.8"/>
    <circle r="6" fill="#fef3c7" stroke="#f59e0b" stroke-width="1.5"/>
    <text y="28" text-anchor="middle" font-size="8" fill="#f59e0b" font-weight="bold">AI Skill</text>
  </g>
</svg>
